# xmcd
#
# Track frame offsets:
#	300
#	12558
#	24946
#	39459
#	52176
#	75555
#	96058
#	112392
#	128452
#	139699
#	150842
#	161402
#	175101
#	192183
#	207489
#	219957
#	233462
#	244727
#	257876
#
# Disc length: 3604 seconds
#
# Revision: 0
# Processed by: cddbd v1.5.1PL2 Copyright (c) Steve Scherf et al.
# Submitted via: audiograbber 1.83.01
#
DISCID=f50e1013
DTITLE=Various Artist - Rhythm and Blues Christmas
DYEAR=1996
DGENRE=christmas
TTITLE0=Carr, Conner, Leach - Johnny Adams - The Little Boy That Santa Forgot
TTITLE1=Nadine, McKinnon - Donnie Hathaway - Johnny Adams - This Christmas
TTITLE2=L Glenn - Johnny Adams - Lonesome Christmas
TTITLE3=D Furber, E Adams - Johnny Adams - Bells Of Saint Mary's
TTITLE4=C Brown, Gean Redd - Johnny Adams - Please Come Home For Christmas
TTITLE5=Johnny Adams - O Little Town Of Bethlehem
TTITLE6=Johnny Adams - The Lord's Prayer
TTITLE7=J Livingston, R Evans - Johnny Adams - Silver Bells
TTITLE8=Brook Benton - You're All I Want For Christmas
TTITLE9=Cliff Owens, Jesse Hollis - Brook Benton - This Time Of Year
TTITLE10=The Drifters - Little Saint Nick
TTITLE11=T Connor - The Drifters - I Saw Mommy Kissing Santa Claus
TTITLE12=The Drifters - Santa Claus Got The Blues
TTITLE13=Charles Brown - Merry Christmas, Baby 
TTITLE14=Jerry Butler - Silent Night
TTITLE15=Jerry Butler - O Holy Night
TTITLE16=I Van,T Lasatter - Charles Brown - Let's Make Everyday Christmas
TTITLE17=Patti Labelle - O Come All Ye Faithful
TTITLE18=Patti Labelle - Jingle Bells
EXTD=
EXTT0=
EXTT1=
EXTT2=
EXTT3=
EXTT4=
EXTT5=
EXTT6=
EXTT7=
EXTT8=
EXTT9=
EXTT10=
EXTT11=
EXTT12=
EXTT13=
EXTT14=
EXTT15=
EXTT16=
EXTT17=
EXTT18=
PLAYORDER=
